<?xml version="1.0" encoding="iso-8859-1"?>
<!-- Uploaded to: SVG Repo, www.svgrepo.com, Generator: SVG Repo Mixer Tools -->
<svg height="800px" width="800px" version="1.1" id="Layer_1" xmlns="http://www.w3.org/2000/svg" xmlns:xlink="http://www.w3.org/1999/xlink" 
	 viewBox="0 0 512 512" xml:space="preserve">
<path style="fill:#B29A7E;" d="M256,141.954c-6.189,0-11.207-5.016-11.207-11.207C244.793,58.653,303.446,0,375.541,0
	c6.189,0,11.207,5.016,11.207,11.207s-5.018,11.207-11.207,11.207c-59.736,0-108.334,48.598-108.334,108.334
	C267.207,136.938,262.189,141.954,256,141.954z"/>
<path style="fill:#E07188;" d="M345.655,108.55c-33.08,0-63.871,9.78-89.655,26.595c-25.785-16.815-56.576-26.595-89.655-26.595
	c-90.778,0-164.368,73.591-164.368,164.368C1.976,392.459,61.746,512,166.345,512c33.08,0,63.871-9.78,89.655-26.595
	C281.785,502.22,312.576,512,345.655,512c104.598,0,164.368-119.541,164.368-239.081C510.024,182.14,436.435,108.55,345.655,108.55z
	"/>
<path style="fill:#DC4161;" d="M345.655,108.55c-15.525,0-30.537,2.179-44.774,6.204c68.962,19.531,119.487,82.946,119.487,158.164
	c0,102.443-43.9,204.878-122.289,232.085c15.059,4.549,31.031,6.996,47.576,6.996c104.598,0,164.368-119.541,164.368-239.081
	C510.024,182.14,436.435,108.55,345.655,108.55z"/>
<path style="fill:#95D5A7;" d="M133.471,12.918c0,67.67,54.859,122.529,122.529,122.529C256,67.775,201.143,12.918,133.471,12.918z"
	/>
<path style="fill:#80CB93;" d="M210.836,126.815c13.98,5.548,29.208,8.631,45.164,8.631c0-67.67-54.859-122.529-122.529-122.529
	c0,2.905,0.137,5.777,0.336,8.631C176.573,38.522,207.495,78.855,210.836,126.815z"/>
</svg>